<mxfile host="65bd71144e">
    <diagram id="yTEWT-CN5qobF0txG5FV" name="Page-1">
        <mxGraphModel dx="4127" dy="1232" grid="1" gridSize="10" guides="1" tooltips="1" connect="1" arrows="1" fold="1" page="1" pageScale="1" pageWidth="850" pageHeight="1100" math="0" shadow="0">
            <root>
                <mxCell id="0"/>
                <mxCell id="1" parent="0"/>
                <mxCell id="2" value="" style="aspect=fixed;html=1;points=[];align=center;image;fontSize=12;image=img/lib/azure2/compute/Function_Apps.svg;" parent="1" vertex="1">
                    <mxGeometry x="130" y="140" width="68" height="60" as="geometry"/>
                </mxCell>
                <mxCell id="4" value="" style="html=1;verticalLabelPosition=bottom;align=center;labelBackgroundColor=#ffffff;verticalAlign=top;strokeWidth=2;strokeColor=#0080F0;shadow=0;dashed=0;shape=mxgraph.ios7.icons.clock;" parent="1" vertex="1">
                    <mxGeometry x="198" y="120" width="30" height="30" as="geometry"/>
                </mxCell>
                <mxCell id="5" value="" style="shape=table;html=1;whiteSpace=wrap;startSize=0;container=1;collapsible=0;childLayout=tableLayout;" parent="1" vertex="1">
                    <mxGeometry x="2450" y="350" width="890" height="250" as="geometry"/>
                </mxCell>
                <mxCell id="6" value="" style="shape=tableRow;horizontal=0;startSize=0;swimlaneHead=0;swimlaneBody=0;top=0;left=0;bottom=0;right=0;collapsible=0;dropTarget=0;fillColor=none;points=[[0,0.5],[1,0.5]];portConstraint=eastwest;" parent="5" vertex="1">
                    <mxGeometry width="890" height="82" as="geometry"/>
                </mxCell>
                <mxCell id="7" value="URL" style="shape=partialRectangle;html=1;whiteSpace=wrap;connectable=0;fillColor=none;top=0;left=0;bottom=0;right=0;overflow=hidden;" parent="6" vertex="1">
                    <mxGeometry width="430" height="82" as="geometry">
                        <mxRectangle width="430" height="82" as="alternateBounds"/>
                    </mxGeometry>
                </mxCell>
                <mxCell id="8" value="REQUEST_PARAMS" style="shape=partialRectangle;html=1;whiteSpace=wrap;connectable=0;fillColor=none;top=0;left=0;bottom=0;right=0;overflow=hidden;" parent="6" vertex="1">
                    <mxGeometry x="430" width="163" height="82" as="geometry">
                        <mxRectangle width="163" height="82" as="alternateBounds"/>
                    </mxGeometry>
                </mxCell>
                <mxCell id="9" value="CONFIG_ID" style="shape=partialRectangle;html=1;whiteSpace=wrap;connectable=0;fillColor=none;top=0;left=0;bottom=0;right=0;overflow=hidden;" parent="6" vertex="1">
                    <mxGeometry x="593" width="297" height="82" as="geometry">
                        <mxRectangle width="297" height="82" as="alternateBounds"/>
                    </mxGeometry>
                </mxCell>
                <mxCell id="10" value="" style="shape=tableRow;horizontal=0;startSize=0;swimlaneHead=0;swimlaneBody=0;top=0;left=0;bottom=0;right=0;collapsible=0;dropTarget=0;fillColor=none;points=[[0,0.5],[1,0.5]];portConstraint=eastwest;fontColor=none;noLabel=1;" parent="5" vertex="1">
                    <mxGeometry y="82" width="890" height="86" as="geometry"/>
                </mxCell>
                <mxCell id="11" value="&lt;div style=&quot;background-color: rgb(31, 31, 31); font-family: &amp;quot;Droid Sans Mono&amp;quot;, &amp;quot;monospace&amp;quot;, monospace; font-size: 14px; line-height: 19px;&quot;&gt;&lt;span style=&quot;font-family: Helvetica; background-color: rgb(255, 255, 255);&quot;&gt;https://www.tagesschau.de/archiv&amp;nbsp;&lt;/span&gt;&lt;br&gt;&lt;/div&gt;" style="shape=partialRectangle;html=1;whiteSpace=wrap;connectable=0;fillColor=none;top=0;left=0;bottom=0;right=0;overflow=hidden;fontColor=default;" parent="10" vertex="1">
                    <mxGeometry width="430" height="86" as="geometry">
                        <mxRectangle width="430" height="86" as="alternateBounds"/>
                    </mxGeometry>
                </mxCell>
                <mxCell id="12" value="&lt;span style=&quot;font-size: 14px; background-color: rgb(255, 255, 255);&quot;&gt;{datum: 2024-02-20 , filter: &lt;br&gt;inland}&lt;/span&gt;" style="shape=partialRectangle;html=1;whiteSpace=wrap;connectable=0;fillColor=none;top=0;left=0;bottom=0;right=0;overflow=hidden;" parent="10" vertex="1">
                    <mxGeometry x="430" width="163" height="86" as="geometry">
                        <mxRectangle width="163" height="86" as="alternateBounds"/>
                    </mxGeometry>
                </mxCell>
                <mxCell id="13" value="101" style="shape=partialRectangle;html=1;whiteSpace=wrap;connectable=0;fillColor=none;top=0;left=0;bottom=0;right=0;overflow=hidden;" parent="10" vertex="1">
                    <mxGeometry x="593" width="297" height="86" as="geometry">
                        <mxRectangle width="297" height="86" as="alternateBounds"/>
                    </mxGeometry>
                </mxCell>
                <mxCell id="14" value="" style="shape=tableRow;horizontal=0;startSize=0;swimlaneHead=0;swimlaneBody=0;top=0;left=0;bottom=0;right=0;collapsible=0;dropTarget=0;fillColor=none;points=[[0,0.5],[1,0.5]];portConstraint=eastwest;" parent="5" vertex="1">
                    <mxGeometry y="168" width="890" height="82" as="geometry"/>
                </mxCell>
                <mxCell id="15" value="&lt;span style=&quot;font-size: 14px; background-color: rgb(255, 255, 255);&quot;&gt;https://www.tagesschau.de/archiv&amp;nbsp;&lt;/span&gt;" style="shape=partialRectangle;html=1;whiteSpace=wrap;connectable=0;fillColor=none;top=0;left=0;bottom=0;right=0;overflow=hidden;" parent="14" vertex="1">
                    <mxGeometry width="430" height="82" as="geometry">
                        <mxRectangle width="430" height="82" as="alternateBounds"/>
                    </mxGeometry>
                </mxCell>
                <mxCell id="16" value="&lt;span style=&quot;font-size: 14px; background-color: rgb(255, 255, 255);&quot;&gt;{datum: 2024-02-20 , filter:&lt;/span&gt;&lt;br style=&quot;border-color: var(--border-color); font-size: 14px;&quot;&gt;&lt;span style=&quot;font-size: 14px; background-color: rgb(255, 255, 255);&quot;&gt;inland}&lt;/span&gt;" style="shape=partialRectangle;html=1;whiteSpace=wrap;connectable=0;fillColor=none;top=0;left=0;bottom=0;right=0;overflow=hidden;" parent="14" vertex="1">
                    <mxGeometry x="430" width="163" height="82" as="geometry">
                        <mxRectangle width="163" height="82" as="alternateBounds"/>
                    </mxGeometry>
                </mxCell>
                <mxCell id="17" value="102" style="shape=partialRectangle;html=1;whiteSpace=wrap;connectable=0;fillColor=none;top=0;left=0;bottom=0;right=0;overflow=hidden;pointerEvents=1;" parent="14" vertex="1">
                    <mxGeometry x="593" width="297" height="82" as="geometry">
                        <mxRectangle width="297" height="82" as="alternateBounds"/>
                    </mxGeometry>
                </mxCell>
                <mxCell id="18" value="" style="aspect=fixed;html=1;points=[];align=center;image;fontSize=12;image=img/lib/azure2/general/Storage_Queue.svg;" parent="1" vertex="1">
                    <mxGeometry x="534" y="154" width="64" height="52" as="geometry"/>
                </mxCell>
                <mxCell id="22" value="Queue-Worker Architecture" style="text;html=1;align=center;verticalAlign=middle;resizable=0;points=[];autosize=1;strokeColor=none;fillColor=none;fontSize=30;" parent="1" vertex="1">
                    <mxGeometry x="40" y="40" width="390" height="50" as="geometry"/>
                </mxCell>
                <mxCell id="24" value="Key-Value pairs:&lt;br&gt;url&lt;br&gt;" style="text;html=1;align=left;verticalAlign=middle;resizable=0;points=[];autosize=1;strokeColor=none;fillColor=none;fontSize=30;" parent="1" vertex="1">
                    <mxGeometry x="2470" y="270" width="240" height="90" as="geometry"/>
                </mxCell>
                <mxCell id="26" value="" style="shape=table;html=1;whiteSpace=wrap;startSize=0;container=1;collapsible=0;childLayout=tableLayout;" parent="1" vertex="1">
                    <mxGeometry x="2450" y="661.5" width="727" height="250" as="geometry"/>
                </mxCell>
                <mxCell id="27" value="" style="shape=tableRow;horizontal=0;startSize=0;swimlaneHead=0;swimlaneBody=0;top=0;left=0;bottom=0;right=0;collapsible=0;dropTarget=0;fillColor=none;points=[[0,0.5],[1,0.5]];portConstraint=eastwest;" parent="26" vertex="1">
                    <mxGeometry width="727" height="82" as="geometry"/>
                </mxCell>
                <mxCell id="28" value="CONFIG_NAME" style="shape=partialRectangle;html=1;whiteSpace=wrap;connectable=0;fillColor=none;top=0;left=0;bottom=0;right=0;overflow=hidden;" parent="27" vertex="1">
                    <mxGeometry width="430" height="82" as="geometry">
                        <mxRectangle width="430" height="82" as="alternateBounds"/>
                    </mxGeometry>
                </mxCell>
                <mxCell id="30" value="CONFIG_ID" style="shape=partialRectangle;html=1;whiteSpace=wrap;connectable=0;fillColor=none;top=0;left=0;bottom=0;right=0;overflow=hidden;" parent="27" vertex="1">
                    <mxGeometry x="430" width="297" height="82" as="geometry">
                        <mxRectangle width="297" height="82" as="alternateBounds"/>
                    </mxGeometry>
                </mxCell>
                <mxCell id="31" value="" style="shape=tableRow;horizontal=0;startSize=0;swimlaneHead=0;swimlaneBody=0;top=0;left=0;bottom=0;right=0;collapsible=0;dropTarget=0;fillColor=none;points=[[0,0.5],[1,0.5]];portConstraint=eastwest;fontColor=none;noLabel=1;" parent="26" vertex="1">
                    <mxGeometry y="82" width="727" height="86" as="geometry"/>
                </mxCell>
                <mxCell id="32" value="&lt;div style=&quot;background-color: rgb(31, 31, 31); font-family: &amp;quot;Droid Sans Mono&amp;quot;, &amp;quot;monospace&amp;quot;, monospace; font-size: 14px; line-height: 19px;&quot;&gt;&lt;span style=&quot;font-family: Helvetica; background-color: rgb(255, 255, 255);&quot;&gt;single_groups.yml&lt;/span&gt;&lt;br&gt;&lt;/div&gt;" style="shape=partialRectangle;html=1;whiteSpace=wrap;connectable=0;fillColor=none;top=0;left=0;bottom=0;right=0;overflow=hidden;fontColor=default;" parent="31" vertex="1">
                    <mxGeometry width="430" height="86" as="geometry">
                        <mxRectangle width="430" height="86" as="alternateBounds"/>
                    </mxGeometry>
                </mxCell>
                <mxCell id="34" value="101" style="shape=partialRectangle;html=1;whiteSpace=wrap;connectable=0;fillColor=none;top=0;left=0;bottom=0;right=0;overflow=hidden;" parent="31" vertex="1">
                    <mxGeometry x="430" width="297" height="86" as="geometry">
                        <mxRectangle width="297" height="86" as="alternateBounds"/>
                    </mxGeometry>
                </mxCell>
                <mxCell id="35" value="" style="shape=tableRow;horizontal=0;startSize=0;swimlaneHead=0;swimlaneBody=0;top=0;left=0;bottom=0;right=0;collapsible=0;dropTarget=0;fillColor=none;points=[[0,0.5],[1,0.5]];portConstraint=eastwest;" parent="26" vertex="1">
                    <mxGeometry y="168" width="727" height="82" as="geometry"/>
                </mxCell>
                <mxCell id="36" value="&lt;span style=&quot;font-size: 14px; background-color: rgb(255, 255, 255);&quot;&gt;multiple_groups.yml&lt;/span&gt;" style="shape=partialRectangle;html=1;whiteSpace=wrap;connectable=0;fillColor=none;top=0;left=0;bottom=0;right=0;overflow=hidden;" parent="35" vertex="1">
                    <mxGeometry width="430" height="82" as="geometry">
                        <mxRectangle width="430" height="82" as="alternateBounds"/>
                    </mxGeometry>
                </mxCell>
                <mxCell id="38" value="102" style="shape=partialRectangle;html=1;whiteSpace=wrap;connectable=0;fillColor=none;top=0;left=0;bottom=0;right=0;overflow=hidden;pointerEvents=1;" parent="35" vertex="1">
                    <mxGeometry x="430" width="297" height="82" as="geometry">
                        <mxRectangle width="297" height="82" as="alternateBounds"/>
                    </mxGeometry>
                </mxCell>
                <mxCell id="40" value="Daily, 5:00 AM" style="text;html=1;align=center;verticalAlign=middle;resizable=0;points=[];autosize=1;strokeColor=none;fillColor=none;fontSize=12;fontFamily=Helvetica;fontColor=default;" parent="1" vertex="1">
                    <mxGeometry x="240" y="120" width="100" height="30" as="geometry"/>
                </mxCell>
                <mxCell id="41" value="&lt;span style=&quot;background-color: rgb(251, 251, 251);&quot;&gt;Message to queue&lt;/span&gt;" style="shape=singleArrow;whiteSpace=wrap;html=1;labelBackgroundColor=#FFFFFF;fontFamily=Helvetica;fontSize=12;fontColor=default;" parent="1" vertex="1">
                    <mxGeometry x="352" y="140" width="146" height="80" as="geometry"/>
                </mxCell>
                <mxCell id="45" value="" style="endArrow=classic;html=1;" edge="1" parent="1">
                    <mxGeometry width="50" height="50" relative="1" as="geometry">
                        <mxPoint x="700" y="179.66" as="sourcePoint"/>
                        <mxPoint x="620" y="179.66" as="targetPoint"/>
                    </mxGeometry>
                </mxCell>
                <mxCell id="46" value="Read from queue" style="text;html=1;align=center;verticalAlign=middle;resizable=0;points=[];autosize=1;strokeColor=none;fillColor=none;" vertex="1" parent="1">
                    <mxGeometry x="620" y="154" width="120" height="30" as="geometry"/>
                </mxCell>
                <mxCell id="47" value="Process message" style="text;html=1;align=center;verticalAlign=middle;resizable=0;points=[];autosize=1;strokeColor=none;fillColor=none;" vertex="1" parent="1">
                    <mxGeometry x="814" y="140" width="120" height="30" as="geometry"/>
                </mxCell>
                <mxCell id="48" value="" style="aspect=fixed;html=1;points=[];align=center;image;fontSize=12;image=img/lib/azure2/compute/Function_Apps.svg;" vertex="1" parent="1">
                    <mxGeometry x="746" y="146" width="68" height="60" as="geometry"/>
                </mxCell>
                <mxCell id="55" value="" style="edgeStyle=none;html=1;" edge="1" parent="1" source="49">
                    <mxGeometry relative="1" as="geometry">
                        <mxPoint x="925" y="316" as="targetPoint"/>
                    </mxGeometry>
                </mxCell>
                <mxCell id="49" value="&lt;ul&gt;&lt;li&gt;Get html from url + request params&lt;/li&gt;&lt;/ul&gt;" style="text;html=1;align=left;verticalAlign=middle;resizable=0;points=[];autosize=1;strokeColor=none;fillColor=none;" vertex="1" parent="1">
                    <mxGeometry x="800" y="156" width="250" height="60" as="geometry"/>
                </mxCell>
                <mxCell id="51" value="" style="sketch=0;aspect=fixed;html=1;points=[];align=center;image;fontSize=12;image=img/lib/mscae/BlobBlock.svg;" vertex="1" parent="1">
                    <mxGeometry x="900" y="328" width="50" height="42" as="geometry"/>
                </mxCell>
                <mxCell id="53" value="" style="outlineConnect=0;dashed=0;verticalLabelPosition=bottom;verticalAlign=top;align=center;html=1;shape=mxgraph.aws3.event_event_based;fillColor=#759C3E;gradientColor=none;" vertex="1" parent="1">
                    <mxGeometry x="270.5" y="400" width="30" height="42.5" as="geometry"/>
                </mxCell>
                <mxCell id="56" value="Save html to storage account" style="text;html=1;align=center;verticalAlign=middle;resizable=0;points=[];autosize=1;strokeColor=none;fillColor=none;" vertex="1" parent="1">
                    <mxGeometry x="920" y="250" width="180" height="30" as="geometry"/>
                </mxCell>
                <mxCell id="57" value="&lt;div style=&quot;text-align: left;&quot;&gt;&lt;ul&gt;&lt;li&gt;&lt;span style=&quot;background-color: initial;&quot;&gt;html_id&lt;/span&gt;&lt;/li&gt;&lt;li&gt;&lt;span style=&quot;background-color: initial;&quot;&gt;url&lt;/span&gt;&lt;/li&gt;&lt;li&gt;&lt;span style=&quot;background-color: initial;&quot;&gt;request_params&lt;/span&gt;&lt;/li&gt;&lt;li&gt;&lt;span style=&quot;background-color: initial;&quot;&gt;html_filename&lt;/span&gt;&lt;/li&gt;&lt;li&gt;&lt;span style=&quot;background-color: initial;&quot;&gt;trigger_timestamp&lt;/span&gt;&lt;/li&gt;&lt;li&gt;&lt;span style=&quot;background-color: initial;&quot;&gt;extraction_timestamp&lt;/span&gt;&lt;/li&gt;&lt;/ul&gt;&lt;/div&gt;" style="text;html=1;align=center;verticalAlign=middle;resizable=0;points=[];autosize=1;strokeColor=none;fillColor=none;" vertex="1" parent="1">
                    <mxGeometry x="610" y="285" width="180" height="160" as="geometry"/>
                </mxCell>
                <mxCell id="58" value="" style="aspect=fixed;html=1;points=[];align=center;image;fontSize=12;image=img/lib/azure2/general/Table.svg;" vertex="1" parent="1">
                    <mxGeometry x="800" y="328" width="49.69" height="40.37" as="geometry"/>
                </mxCell>
                <mxCell id="59" value="" style="edgeStyle=none;html=1;" edge="1" parent="1">
                    <mxGeometry relative="1" as="geometry">
                        <mxPoint x="823.61" y="226" as="sourcePoint"/>
                        <mxPoint x="823.61" y="316" as="targetPoint"/>
                    </mxGeometry>
                </mxCell>
                <mxCell id="60" value="Save meta data to table" style="text;html=1;align=center;verticalAlign=middle;resizable=0;points=[];autosize=1;strokeColor=none;fillColor=none;" vertex="1" parent="1">
                    <mxGeometry x="664" y="254" width="150" height="30" as="geometry"/>
                </mxCell>
                <mxCell id="61" value="" style="aspect=fixed;html=1;points=[];align=center;image;fontSize=12;image=img/lib/azure2/compute/Function_Apps.svg;" vertex="1" parent="1">
                    <mxGeometry x="202.5" y="500" width="68" height="60" as="geometry"/>
                </mxCell>
                <mxCell id="62" value="Scrape html" style="text;html=1;align=center;verticalAlign=middle;resizable=0;points=[];autosize=1;strokeColor=none;fillColor=none;" vertex="1" parent="1">
                    <mxGeometry x="250" y="475" width="90" height="30" as="geometry"/>
                </mxCell>
                <mxCell id="78" value="html_id" style="text;html=1;align=center;verticalAlign=middle;resizable=0;points=[];autosize=1;strokeColor=none;fillColor=none;" vertex="1" parent="1">
                    <mxGeometry x="190" y="680" width="60" height="30" as="geometry"/>
                </mxCell>
                <mxCell id="79" value="config_id; config_path" style="text;html=1;align=left;verticalAlign=middle;resizable=0;points=[];autosize=1;strokeColor=none;fillColor=none;" vertex="1" parent="1">
                    <mxGeometry x="388" y="535" width="140" height="30" as="geometry"/>
                </mxCell>
                <mxCell id="81" value="" style="edgeStyle=segmentEdgeStyle;endArrow=classic;html=1;curved=0;rounded=0;endSize=8;startSize=8;exitX=0.531;exitY=1.007;exitDx=0;exitDy=0;exitPerimeter=0;" edge="1" parent="1" source="58" target="61">
                    <mxGeometry width="50" height="50" relative="1" as="geometry">
                        <mxPoint x="740" y="380" as="sourcePoint"/>
                        <mxPoint x="790" y="330" as="targetPoint"/>
                        <Array as="points">
                            <mxPoint x="826" y="450"/>
                            <mxPoint x="240" y="450"/>
                        </Array>
                    </mxGeometry>
                </mxCell>
                <mxCell id="83" value="Start scraping function when there is a new row&amp;nbsp;" style="text;html=1;align=center;verticalAlign=middle;resizable=0;points=[];autosize=1;strokeColor=none;fillColor=none;" vertex="1" parent="1">
                    <mxGeometry x="290" y="415" width="280" height="30" as="geometry"/>
                </mxCell>
                <mxCell id="84" value="&lt;ul&gt;&lt;li&gt;url&lt;/li&gt;&lt;li&gt;request_params&lt;/li&gt;&lt;li&gt;html_id&lt;/li&gt;&lt;li&gt;trigger_timestamp (calculated)&lt;/li&gt;&lt;/ul&gt;" style="text;html=1;align=left;verticalAlign=middle;resizable=0;points=[];autosize=1;strokeColor=none;fillColor=none;fontSize=12;" vertex="1" parent="1">
                    <mxGeometry x="97.5" y="203" width="220" height="120" as="geometry"/>
                </mxCell>
                <mxCell id="85" value="" style="edgeStyle=entityRelationEdgeStyle;fontSize=12;html=1;endArrow=ERmandOne;startArrow=ERmandOne;" edge="1" parent="1">
                    <mxGeometry width="100" height="100" relative="1" as="geometry">
                        <mxPoint x="250" y="700" as="sourcePoint"/>
                        <mxPoint x="388" y="550" as="targetPoint"/>
                    </mxGeometry>
                </mxCell>
                <mxCell id="86" value="one-to-one" style="text;html=1;align=center;verticalAlign=middle;resizable=0;points=[];autosize=1;strokeColor=none;fillColor=none;fontSize=12;" vertex="1" parent="1">
                    <mxGeometry x="288" y="520" width="80" height="30" as="geometry"/>
                </mxCell>
                <mxCell id="88" value="" style="edgeStyle=none;html=1;fontSize=12;" edge="1" parent="1" source="87" target="79">
                    <mxGeometry relative="1" as="geometry"/>
                </mxCell>
                <mxCell id="87" value="" style="sketch=0;aspect=fixed;html=1;points=[];align=center;image;fontSize=12;image=img/lib/mscae/BlobBlock.svg;" vertex="1" parent="1">
                    <mxGeometry x="630" y="529" width="50" height="42" as="geometry"/>
                </mxCell>
                <mxCell id="89" value="retrieve config" style="text;html=1;align=center;verticalAlign=middle;resizable=0;points=[];autosize=1;strokeColor=none;fillColor=none;fontSize=12;" vertex="1" parent="1">
                    <mxGeometry x="528" y="520" width="100" height="30" as="geometry"/>
                </mxCell>
                <mxCell id="64" value="config2html mapping" style="shape=table;startSize=30;container=1;collapsible=0;childLayout=tableLayout;fontStyle=1;align=center;fontSize=8;" vertex="1" parent="1">
                    <mxGeometry x="255" y="571.5" width="133" height="90" as="geometry"/>
                </mxCell>
                <mxCell id="65" value="" style="shape=tableRow;horizontal=0;startSize=0;swimlaneHead=0;swimlaneBody=0;top=0;left=0;bottom=0;right=0;collapsible=0;dropTarget=0;fillColor=none;points=[[0,0.5],[1,0.5]];portConstraint=eastwest;fontSize=8;" vertex="1" parent="64">
                    <mxGeometry y="30" width="133" height="16" as="geometry"/>
                </mxCell>
                <mxCell id="66" value="html_id" style="shape=partialRectangle;html=1;whiteSpace=wrap;connectable=0;fillColor=none;top=0;left=0;bottom=0;right=0;overflow=hidden;fontSize=8;" vertex="1" parent="65">
                    <mxGeometry width="44" height="16" as="geometry">
                        <mxRectangle width="44" height="16" as="alternateBounds"/>
                    </mxGeometry>
                </mxCell>
                <mxCell id="67" value="config_id" style="shape=partialRectangle;html=1;whiteSpace=wrap;connectable=0;fillColor=none;top=0;left=0;bottom=0;right=0;overflow=hidden;fontSize=8;" vertex="1" parent="65">
                    <mxGeometry x="44" width="45" height="16" as="geometry">
                        <mxRectangle width="45" height="16" as="alternateBounds"/>
                    </mxGeometry>
                </mxCell>
                <mxCell id="68" value="config_path" style="shape=partialRectangle;html=1;whiteSpace=wrap;connectable=0;fillColor=none;top=0;left=0;bottom=0;right=0;overflow=hidden;fontSize=8;" vertex="1" parent="65">
                    <mxGeometry x="89" width="44" height="16" as="geometry">
                        <mxRectangle width="44" height="16" as="alternateBounds"/>
                    </mxGeometry>
                </mxCell>
                <mxCell id="69" value="" style="shape=tableRow;horizontal=0;startSize=0;swimlaneHead=0;swimlaneBody=0;top=0;left=0;bottom=0;right=0;collapsible=0;dropTarget=0;fillColor=none;points=[[0,0.5],[1,0.5]];portConstraint=eastwest;fontSize=8;" vertex="1" parent="64">
                    <mxGeometry y="46" width="133" height="23" as="geometry"/>
                </mxCell>
                <mxCell id="70" value="tsarchiv" style="shape=partialRectangle;html=1;whiteSpace=wrap;connectable=0;fillColor=none;top=0;left=0;bottom=0;right=0;overflow=hidden;fontSize=8;" vertex="1" parent="69">
                    <mxGeometry width="44" height="23" as="geometry">
                        <mxRectangle width="44" height="23" as="alternateBounds"/>
                    </mxGeometry>
                </mxCell>
                <mxCell id="71" value="tsteaser" style="shape=partialRectangle;html=1;whiteSpace=wrap;connectable=0;fillColor=none;top=0;left=0;bottom=0;right=0;overflow=hidden;fontSize=8;" vertex="1" parent="69">
                    <mxGeometry x="44" width="45" height="23" as="geometry">
                        <mxRectangle width="45" height="23" as="alternateBounds"/>
                    </mxGeometry>
                </mxCell>
                <mxCell id="72" value="" style="shape=partialRectangle;html=1;whiteSpace=wrap;connectable=0;fillColor=none;top=0;left=0;bottom=0;right=0;overflow=hidden;fontSize=8;" vertex="1" parent="69">
                    <mxGeometry x="89" width="44" height="23" as="geometry">
                        <mxRectangle width="44" height="23" as="alternateBounds"/>
                    </mxGeometry>
                </mxCell>
                <mxCell id="73" value="" style="shape=tableRow;horizontal=0;startSize=0;swimlaneHead=0;swimlaneBody=0;top=0;left=0;bottom=0;right=0;collapsible=0;dropTarget=0;fillColor=none;points=[[0,0.5],[1,0.5]];portConstraint=eastwest;fontSize=8;" vertex="1" parent="64">
                    <mxGeometry y="69" width="133" height="21" as="geometry"/>
                </mxCell>
                <mxCell id="74" value="..." style="shape=partialRectangle;html=1;whiteSpace=wrap;connectable=0;fillColor=none;top=0;left=0;bottom=0;right=0;overflow=hidden;fontSize=8;" vertex="1" parent="73">
                    <mxGeometry width="44" height="21" as="geometry">
                        <mxRectangle width="44" height="21" as="alternateBounds"/>
                    </mxGeometry>
                </mxCell>
                <mxCell id="75" value="..." style="shape=partialRectangle;html=1;whiteSpace=wrap;connectable=0;fillColor=none;top=0;left=0;bottom=0;right=0;overflow=hidden;fontSize=8;" vertex="1" parent="73">
                    <mxGeometry x="44" width="45" height="21" as="geometry">
                        <mxRectangle width="45" height="21" as="alternateBounds"/>
                    </mxGeometry>
                </mxCell>
                <mxCell id="76" value="" style="shape=partialRectangle;html=1;whiteSpace=wrap;connectable=0;fillColor=none;top=0;left=0;bottom=0;right=0;overflow=hidden;fontSize=8;" vertex="1" parent="73">
                    <mxGeometry x="89" width="44" height="21" as="geometry">
                        <mxRectangle width="44" height="21" as="alternateBounds"/>
                    </mxGeometry>
                </mxCell>
            </root>
        </mxGraphModel>
    </diagram>
</mxfile>